<svg xmlns="http://www.w3.org/2000/svg" x="0px" y="0px" width="24px" height="24px" viewBox="0 0 18 18"><path d="M9 9L12.25 5.75" stroke="rgba(42, 37, 32, 1)" stroke-width="1" stroke-linecap="round" stroke-linejoin="round" data-color="color-2" fill="none"></path> <path d="M12.25 5.75L11.5 3.5L14 1L14.75 3.25L17 4L14.5 6.5L12.25 5.75Z" stroke="rgba(42, 37, 32, 1)" stroke-width="1" stroke-linecap="round" stroke-linejoin="round" data-color="color-2" fill="none"></path> <path d="M8.757 4.75677C6.5231 4.88277 4.75 6.7346 4.75 9C4.75 11.3469 6.653 13.25 9 13.25C11.2653 13.25 13.1171 11.477 13.2432 9.24323" stroke="rgba(42, 37, 32, 1)" stroke-width="1" stroke-linecap="round" stroke-linejoin="round" fill="none"></path> <path d="M9.06329 1.75031C9.04219 1.75011 9.0212 1.75 9 1.75C4.996 1.75 1.75 4.9961 1.75 9C1.75 13.0039 4.996 16.25 9 16.25C13.004 16.25 16.25 13.0039 16.25 9C16.25 8.9788 16.2499 8.95772 16.2497 8.93652" stroke="rgba(42, 37, 32, 1)" stroke-width="1" stroke-linecap="round" stroke-linejoin="round" fill="none"></path></svg>